<svg viewBox="0 0 255 43" xmlns="http://www.w3.org/2000/svg" data-logo="logo">
        <g transform="translate(0, 1) rotate(0)" id="logogram" style="opacity: 1;"><path fill="url(#paint0_linear_5557_2143)" d="M23.32 7.6431C22.711 6.1721 21.818 4.8361 20.693 3.7111C19.568 2.5861 18.231 1.6931 16.761 1.0841C15.289 0.473095 13.713 0.160095 12.121 0.160095C11.762 0.160095 11.406 0.181095 11.05 0.213095C10.944 0.223095 10.839 0.236095 10.734 0.248095C10.472 0.278095 10.211 0.317095 9.95198 0.364095C9.84798 0.383095 9.74398 0.400095 9.63998 0.422095C9.29298 0.495095 8.94798 0.577095 8.60898 0.680095C8.60698 0.680095 8.60498 0.680095 8.60298 0.682095C8.26098 0.786095 7.92598 0.909095 7.59498 1.0431C7.55798 1.0581 7.51998 1.0681 7.48298 1.0831C7.42198 1.1081 7.36598 1.1411 7.30598 1.1671C7.06298 1.2721 6.82398 1.3861 6.58698 1.5071C6.49298 1.5551 6.39798 1.6021 6.30498 1.6531C5.99298 1.8241 5.68598 2.0041 5.38898 2.2021C5.38698 2.2031 5.38598 2.2041 5.38398 2.2051C5.08798 2.4031 4.80398 2.6181 4.52798 2.8401C4.44498 2.9071 4.36498 2.9771 4.28298 3.0461C4.08198 3.2171 3.88598 3.3941 3.69698 3.5771C3.64898 3.6231 3.59698 3.6631 3.54998 3.7101C3.52098 3.7391 3.49698 3.7711 3.46898 3.8001C3.21898 4.0551 2.97698 4.3161 2.75098 4.5921C2.74898 4.5951 2.74698 4.5971 2.74498 4.6001C2.52098 4.8731 2.31298 5.1591 2.11398 5.4511C2.05498 5.53809 1.99898 5.6271 1.94198 5.7161C1.79898 5.9381 1.66398 6.1641 1.53498 6.3941C1.48298 6.4871 1.43098 6.5791 1.38098 6.6731C1.21598 6.9881 1.06098 7.3081 0.923977 7.6381L0.921977 7.6421V7.6461C0.783977 7.9761 0.666977 8.3131 0.560977 8.65209C0.528977 8.75309 0.501977 8.85509 0.472977 8.95609C0.399977 9.21009 0.336977 9.46609 0.280977 9.72309C0.258977 9.8271 0.234977 9.93009 0.214977 10.0341C0.149977 10.3821 0.0939766 10.7321 0.0589766 11.0841C0.0589766 11.0861 0.0589766 11.0891 0.0589766 11.0911C0.0239766 11.4461 0.00997656 11.8031 0.00697656 12.1601C0.00697656 12.2001 0.000976562 12.2401 0.000976562 12.2801H0.00797656C0.00797656 13.0701 0.0779766 13.8621 0.233977 14.6451C0.701977 16.9961 1.85598 19.1561 3.55098 20.8511C5.24598 22.5461 7.40598 23.7001 9.75698 24.1681C12.108 24.6361 14.545 24.3961 16.76 23.4781C18.975 22.5611 20.868 21.0071 22.2 19.0141C23.532 17.0211 24.243 14.6771 24.243 12.2801C24.243 10.6881 23.93 9.11209 23.32 7.6411V7.6431ZM15.145 14.3011C14.746 14.8991 14.177 15.3651 13.513 15.6401C12.848 15.9151 12.117 15.9871 11.412 15.8471C10.706 15.7071 10.059 15.3601 9.54998 14.8521C9.04098 14.3431 8.69498 13.6961 8.55498 12.9901C8.50098 12.7161 8.48798 12.4391 8.49698 12.1631C8.50198 12.0041 8.51798 11.8461 8.54398 11.6891C8.55398 11.6271 8.56298 11.5651 8.57598 11.5031C8.62198 11.2941 8.67998 11.0871 8.76198 10.8891C8.84398 10.6901 8.94898 10.5031 9.06398 10.3231C9.09798 10.2701 9.13598 10.2201 9.17298 10.1691C9.26498 10.0401 9.36598 9.9181 9.47398 9.8021C9.51698 9.7561 9.55898 9.7091 9.60498 9.6651C9.91498 9.36709 10.274 9.1271 10.667 8.9551C10.725 8.9301 10.784 8.9091 10.843 8.8871C10.992 8.8311 11.144 8.7851 11.299 8.74909C11.36 8.7351 11.421 8.7191 11.483 8.7081C11.694 8.6701 11.907 8.64509 12.122 8.64509C12.6 8.64509 13.072 8.7391 13.514 8.9221C13.955 9.10509 14.356 9.3731 14.694 9.7101C15.032 10.0481 15.299 10.4491 15.482 10.8901C15.665 11.3311 15.759 11.8041 15.759 12.2821C15.759 13.0011 15.546 13.7041 15.146 14.3021L15.145 14.3011Z"></path><path fill="url(#paint1_linear_5557_2143)" d="M22.2001 34.7731C23.5321 32.7801 24.2431 30.4361 24.2431 28.0391H15.7581C15.7581 28.7581 15.5451 29.4611 15.1451 30.0591C14.7461 30.6571 14.1781 31.1231 13.5131 31.3981C12.8481 31.6731 12.1171 31.7451 11.4121 31.6051C10.7071 31.4651 10.0591 31.1181 9.55011 30.6101C9.04111 30.1011 8.69511 29.4541 8.55511 28.7481C8.41511 28.0421 8.48711 27.3111 8.76211 26.6471C9.03711 25.9831 9.50311 25.4151 10.1011 25.0151C10.6981 24.6161 11.3991 24.4031 12.1161 24.4021H12.1211V15.9171H12.1181C9.72211 15.9171 7.37911 16.6281 5.38711 17.9601C4.45911 18.5801 3.62711 19.3211 2.91011 20.1601C2.08611 21.1241 1.41311 22.2161 0.923112 23.4001C0.00511158 25.6151 -0.234888 28.0521 0.233112 30.4031C0.701112 32.7541 1.85511 34.9141 3.55011 36.6091C5.24511 38.3041 7.40511 39.4591 9.75611 39.9261C12.1071 40.3941 14.5441 40.1541 16.7591 39.2361C18.9741 38.3191 20.8671 36.7651 22.1991 34.7721L22.2001 34.7731Z"></path><path fill="url(#paint2_linear_5557_2143)" d="M27.8789 15.9181C31.0939 15.9181 34.1769 17.1951 36.4499 19.4681C38.7229 21.7411 39.9999 24.8241 39.9999 28.0391C39.9999 31.2541 38.7229 34.3371 36.4499 36.6101C34.1769 38.8831 31.0939 40.1601 27.8789 40.1601V31.6751C28.8429 31.6751 29.7679 31.2921 30.4499 30.6101C31.1319 29.9281 31.5149 29.0031 31.5149 28.0391C31.5149 27.0751 31.1319 26.1501 30.4499 25.4681C29.7679 24.7861 28.8429 24.4031 27.8789 24.4031V15.9181Z"></path><path fill="#1DC2C6" d="M27.8788 40.1601C24.6638 40.1601 21.5808 38.8831 19.3078 36.6101C17.0348 34.3371 15.7578 31.2541 15.7578 28.0391C15.7578 24.8241 17.0348 21.7411 19.3078 19.4681C21.5808 17.1951 24.6638 15.9181 27.8788 15.9181V24.4031C26.9148 24.4031 25.9898 24.7861 25.3078 25.4681C24.6258 26.1501 24.2428 27.0751 24.2428 28.0391C24.2428 29.0031 24.6258 29.9281 25.3078 30.6101C25.9898 31.2921 26.9148 31.6751 27.8788 31.6751V40.1601Z"></path><path fill="#9BE183" d="M24.2421 12.2811H15.7571C15.7571 12.3111 15.7571 12.3411 15.7561 12.3711C15.7451 12.8161 15.6521 13.2571 15.4801 13.6731C15.3881 13.8941 15.2761 14.1051 15.1441 14.3021C15.1271 14.3271 15.1101 14.3521 15.0931 14.3761C14.8371 14.7401 14.5141 15.0551 14.1411 15.3051C13.9421 15.4381 13.7311 15.5501 13.5121 15.6411C13.4841 15.6531 13.4561 15.6641 13.4281 15.6741C13.0131 15.8341 12.5701 15.9171 12.1201 15.9171V24.4021C13.7191 24.4021 15.2951 24.0861 16.7591 23.4791C16.8041 23.4611 16.8481 23.4421 16.8921 23.4231C17.5741 23.1311 18.2311 22.7751 18.8541 22.3591C20.1841 21.4701 21.3181 20.3321 22.1981 19.0151C22.2251 18.9751 22.2511 18.9351 22.2781 18.8941C22.6831 18.2721 23.0321 17.6111 23.3181 16.9191C23.9301 15.4411 24.2411 13.8651 24.2411 12.2801L24.2421 12.2811Z"></path><path fill="url(#paint3_linear_5557_2143)" d="M15.7578 12.2811C15.7578 9.88408 16.4688 7.54008 17.8008 5.54708C19.1328 3.55408 21.0258 2.00008 23.2408 1.08308C25.4548 0.165085 27.8928 -0.0749153 30.2438 0.393085C32.5948 0.861085 34.7548 2.01508 36.4498 3.71008C38.1448 5.40508 39.2998 7.56508 39.7668 9.91608C40.2348 12.2671 39.9948 14.7041 39.0768 16.9191C38.1598 19.1341 36.6058 21.0271 34.6128 22.3591C32.6198 23.6911 30.2758 24.4021 27.8788 24.4021V15.9171C28.5978 15.9171 29.3008 15.7041 29.8988 15.3041C30.4968 14.9051 30.9628 14.3371 31.2378 13.6721C31.5128 13.0071 31.5848 12.2761 31.4448 11.5711C31.3048 10.8661 30.9578 10.2181 30.4498 9.70908C29.9408 9.20008 29.2938 8.85408 28.5878 8.71408C27.8828 8.57408 27.1508 8.64608 26.4868 8.92108C25.8228 9.19608 25.2548 9.66209 24.8548 10.2601C24.4548 10.8581 24.2418 11.5611 24.2418 12.2801H15.7568L15.7578 12.2811Z"></path></g>
        <g transform="translate(46, 8.5)" id="logotype" style="opacity: 1;"><path d="M12.60 26L6.84 26L15.54 0.54L22.37 0.54L31.29 26L25.50 26L21.42 13.71Q20.68 11.34 19.92 8.51Q19.16 5.68 18.32 2.33L18.32 2.33L19.45 2.33Q18.65 5.70 17.94 8.54Q17.23 11.39 16.53 13.71L16.53 13.71L12.60 26ZM25.86 20.09L12.27 20.09L12.27 16.00L25.86 16.00L25.86 20.09ZM32.16 0.54L37.37 0.54L37.37 26L32.16 26L32.16 0.54ZM50.84 26.34L50.84 26.34Q47.46 26.34 44.78 24.80Q42.11 23.27 40.56 20.34Q39.01 17.42 39.01 13.29L39.01 13.29Q39.01 9.13 40.57 6.20Q42.12 3.27 44.81 1.73Q47.49 0.19 50.84 0.19L50.84 0.19Q53.01 0.19 54.88 0.80Q56.75 1.41 58.21 2.57Q59.66 3.73 60.58 5.42Q61.50 7.10 61.79 9.23L61.79 9.23L56.51 9.23Q56.34 8.19 55.86 7.38Q55.37 6.57 54.64 6.00Q53.92 5.42 52.98 5.12Q52.04 4.83 50.94 4.83L50.94 4.83Q48.96 4.83 47.46 5.82Q45.95 6.81 45.13 8.70Q44.31 10.58 44.31 13.29L44.31 13.29Q44.31 16.04 45.15 17.92Q45.99 19.80 47.47 20.75Q48.96 21.71 50.93 21.71L50.93 21.71Q52.02 21.71 52.95 21.41Q53.88 21.11 54.63 20.54Q55.37 19.97 55.86 19.15Q56.34 18.33 56.53 17.30L56.53 17.30L61.81 17.30Q61.61 19.06 60.76 20.69Q59.91 22.31 58.51 23.59Q57.11 24.87 55.18 25.61Q53.25 26.34 50.84 26.34ZM71.76 26.38L71.76 26.38Q68.88 26.38 66.78 25.14Q64.68 23.90 63.54 21.68Q62.41 19.47 62.41 16.53L62.41 16.53Q62.41 13.56 63.54 11.35Q64.68 9.13 66.78 7.89Q68.88 6.65 71.76 6.65L71.76 6.65Q74.64 6.65 76.74 7.89Q78.83 9.13 79.97 11.35Q81.10 13.56 81.10 16.53L81.10 16.53Q81.10 19.47 79.97 21.68Q78.83 23.90 76.74 25.14Q74.64 26.38 71.76 26.38ZM71.76 22.34L71.76 22.34Q73.12 22.34 74.05 21.58Q74.97 20.82 75.43 19.50Q75.89 18.17 75.89 16.52L75.89 16.52Q75.89 14.82 75.43 13.51Q74.97 12.19 74.05 11.44Q73.12 10.69 71.76 10.69L71.76 10.69Q70.39 10.69 69.47 11.44Q68.56 12.19 68.10 13.51Q67.64 14.82 67.64 16.52L67.64 16.52Q67.64 18.17 68.10 19.50Q68.56 20.82 69.47 21.58Q70.39 22.34 71.76 22.34ZM87.53 26L82.40 26L82.40 6.89L87.15 6.89L87.41 11.64L87.03 11.64Q87.48 9.88 88.34 8.77Q89.20 7.66 90.36 7.13Q91.53 6.60 92.81 6.60L92.81 6.60Q94.88 6.60 96.14 7.91Q97.41 9.22 98.00 11.95L98.00 11.95L97.41 11.95Q97.83 10.12 98.80 8.94Q99.76 7.75 101.09 7.18Q102.41 6.60 103.87 6.60L103.87 6.60Q105.63 6.60 107.00 7.37Q108.38 8.14 109.17 9.59Q109.97 11.03 109.97 13.11L109.97 13.11L109.97 26L104.84 26L104.84 14.09Q104.84 12.46 103.96 11.68Q103.08 10.89 101.80 10.89L101.80 10.89Q100.84 10.89 100.13 11.31Q99.42 11.73 99.04 12.48Q98.65 13.23 98.65 14.24L98.65 14.24L98.65 26L93.70 26L93.70 13.95Q93.70 12.55 92.87 11.72Q92.04 10.89 90.72 10.89L90.72 10.89Q89.82 10.89 89.09 11.30Q88.36 11.71 87.95 12.51Q87.53 13.30 87.53 14.45L87.53 14.45L87.53 26ZM117.19 26L112.07 26L112.07 6.89L116.82 6.89L117.07 11.64L116.70 11.64Q117.14 9.88 118.01 8.77Q118.87 7.66 120.03 7.13Q121.19 6.60 122.47 6.60L122.47 6.60Q124.54 6.60 125.81 7.91Q127.07 9.22 127.67 11.95L127.67 11.95L127.07 11.95Q127.50 10.12 128.46 8.94Q129.43 7.75 130.75 7.18Q132.08 6.60 133.53 6.60L133.53 6.60Q135.29 6.60 136.67 7.37Q138.04 8.14 138.84 9.59Q139.63 11.03 139.63 13.11L139.63 13.11L139.63 26L134.51 26L134.51 14.09Q134.51 12.46 133.63 11.68Q132.75 10.89 131.46 10.89L131.46 10.89Q130.51 10.89 129.80 11.31Q129.09 11.73 128.70 12.48Q128.32 13.23 128.32 14.24L128.32 14.24L128.32 26L123.36 26L123.36 13.95Q123.36 12.55 122.53 11.72Q121.71 10.89 120.39 10.89L120.39 10.89Q119.48 10.89 118.76 11.30Q118.03 11.71 117.61 12.51Q117.19 13.30 117.19 14.45L117.19 14.45L117.19 26ZM150.36 26.38L150.36 26.38Q147.44 26.38 145.32 25.18Q143.20 23.98 142.07 21.78Q140.93 19.57 140.93 16.55L140.93 16.55Q140.93 13.59 142.06 11.37Q143.18 9.15 145.25 7.90Q147.32 6.65 150.11 6.65L150.11 6.65Q151.99 6.65 153.61 7.25Q155.23 7.85 156.46 9.06Q157.69 10.26 158.39 12.07Q159.08 13.88 159.08 16.34L159.08 16.34L159.08 17.78L143.03 17.78L143.03 14.57L156.57 14.57L154.17 15.42Q154.17 13.93 153.72 12.83Q153.27 11.73 152.37 11.12Q151.47 10.52 150.14 10.52L150.14 10.52Q148.82 10.52 147.89 11.13Q146.96 11.75 146.48 12.80Q146.00 13.85 146.00 15.20L146.00 15.20L146.00 17.47Q146.00 19.13 146.56 20.26Q147.12 21.39 148.12 21.95Q149.12 22.51 150.45 22.51L150.45 22.51Q151.35 22.51 152.09 22.26Q152.82 22.00 153.34 21.50Q153.87 20.99 154.14 20.26L154.14 20.26L158.79 21.13Q158.33 22.70 157.18 23.89Q156.04 25.08 154.32 25.73Q152.60 26.38 150.36 26.38ZM165.43 26L160.31 26L160.31 6.89L165.26 6.89L165.26 10.23L165.47 10.23Q166.00 8.45 167.24 7.54Q168.48 6.64 170.08 6.64L170.08 6.64Q170.48 6.64 170.93 6.68Q171.38 6.72 171.74 6.81L171.74 6.81L171.74 11.39Q171.40 11.27 170.75 11.20Q170.10 11.13 169.52 11.13L169.52 11.13Q168.36 11.13 167.42 11.64Q166.48 12.14 165.96 13.04Q165.43 13.93 165.43 15.13L165.43 15.13L165.43 26ZM180.83 26.38L180.83 26.38Q177.94 26.38 175.85 25.14Q173.75 23.90 172.62 21.68Q171.48 19.47 171.48 16.53L171.48 16.53Q171.48 13.56 172.62 11.35Q173.75 9.13 175.85 7.89Q177.94 6.65 180.83 6.65L180.83 6.65Q182.52 6.65 183.96 7.10Q185.39 7.54 186.50 8.36Q187.61 9.18 188.33 10.36Q189.05 11.54 189.32 13.01L189.32 13.01L184.56 13.90Q184.40 13.15 184.08 12.56Q183.75 11.97 183.29 11.55Q182.83 11.13 182.22 10.91Q181.62 10.69 180.88 10.69L180.88 10.69Q179.51 10.69 178.58 11.42Q177.65 12.16 177.18 13.47Q176.71 14.79 176.71 16.52L176.71 16.52Q176.71 18.22 177.18 19.53Q177.65 20.84 178.58 21.59Q179.51 22.34 180.88 22.34L180.88 22.34Q181.62 22.34 182.23 22.11Q182.85 21.88 183.32 21.45Q183.80 21.01 184.13 20.39Q184.45 19.78 184.59 19.01L184.59 19.01L189.36 19.88Q189.08 21.40 188.37 22.59Q187.65 23.78 186.54 24.63Q185.43 25.49 183.98 25.93Q182.54 26.38 180.83 26.38ZM199.23 26.38L199.23 26.38Q196.31 26.38 194.19 25.18Q192.07 23.98 190.94 21.78Q189.80 19.57 189.80 16.55L189.80 16.55Q189.80 13.59 190.93 11.37Q192.06 9.15 194.12 7.90Q196.19 6.65 198.98 6.65L198.98 6.65Q200.86 6.65 202.48 7.25Q204.10 7.85 205.33 9.06Q206.57 10.26 207.26 12.07Q207.95 13.88 207.95 16.34L207.95 16.34L207.95 17.78L191.90 17.78L191.90 14.57L205.44 14.57L203.04 15.42Q203.04 13.93 202.59 12.83Q202.14 11.73 201.24 11.12Q200.34 10.52 199.01 10.52L199.01 10.52Q197.70 10.52 196.76 11.13Q195.83 11.75 195.35 12.80Q194.88 13.85 194.88 15.20L194.88 15.20L194.88 17.47Q194.88 19.13 195.43 20.26Q195.99 21.39 196.99 21.95Q197.99 22.51 199.32 22.51L199.32 22.51Q200.22 22.51 200.96 22.26Q201.69 22.00 202.22 21.50Q202.74 20.99 203.01 20.26L203.01 20.26L207.66 21.13Q207.20 22.70 206.05 23.89Q204.91 25.08 203.19 25.73Q201.47 26.38 199.23 26.38Z" fill="#fafafa"></path></g>
        <defs xmlns="http://www.w3.org/2000/svg">
<linearGradient gradientUnits="userSpaceOnUse" y2="13.9881" x2="6.90198" y1="5.27209" x1="33.562" id="paint0_linear_5557_2143">
<stop stop-color="#F16930" offset="0.637"></stop>
<stop stop-color="#F8C70E" offset="0.959"></stop>
</linearGradient>
<linearGradient gradientUnits="userSpaceOnUse" y2="31.3901" x2="22.7451" y1="27.8901" x1="10.7451" id="paint1_linear_5557_2143">
<stop stop-color="#9BE183"></stop>
<stop stop-color="#256B52" offset="1"></stop>
</linearGradient>
<linearGradient gradientUnits="userSpaceOnUse" y2="22.5061" x2="29.6599" y1="30.1601" x1="32.5" id="paint2_linear_5557_2143">
<stop stop-color="#1DC2C6"></stop>
<stop stop-color="#23336B" offset="1"></stop>
</linearGradient>
<linearGradient gradientUnits="userSpaceOnUse" y2="10.1601" x2="27" y1="16.5471" x1="32.7458" id="paint3_linear_5557_2143">
<stop stop-color="#1DC1C5" offset="0.245"></stop>
<stop stop-color="#9CE182" offset="1"></stop>
</linearGradient>
</defs>
      </svg>